<mxfile host="app.diagrams.net" modified="2021-06-07T13:21:33.759Z" agent="5.0 (Windows)" etag="5fpPt3L3s_P_mGV9x9Z9" version="14.7.6" type="github">
  <diagram id="hfisGCpkYvtmeZW-5p2r" name="Page-1">
    <mxGraphModel dx="868" dy="478" grid="1" gridSize="10" guides="1" tooltips="1" connect="1" arrows="1" fold="1" page="1" pageScale="1" pageWidth="850" pageHeight="1100" math="0" shadow="0">
      <root>
        <mxCell id="0" />
        <mxCell id="1" parent="0" />
        <mxCell id="23xbA3XrxommICAyEXQ8-9" style="edgeStyle=orthogonalEdgeStyle;rounded=0;orthogonalLoop=1;jettySize=auto;html=1;exitX=0.5;exitY=1;exitDx=0;exitDy=0;entryX=0.5;entryY=0;entryDx=0;entryDy=0;" edge="1" parent="1" source="23xbA3XrxommICAyEXQ8-1" target="23xbA3XrxommICAyEXQ8-6">
          <mxGeometry relative="1" as="geometry">
            <Array as="points">
              <mxPoint x="365" y="310" />
              <mxPoint x="365" y="310" />
            </Array>
          </mxGeometry>
        </mxCell>
        <mxCell id="23xbA3XrxommICAyEXQ8-1" value="Explain model" style="rounded=0;whiteSpace=wrap;html=1;" vertex="1" parent="1">
          <mxGeometry x="305" y="240" width="120" height="60" as="geometry" />
        </mxCell>
        <mxCell id="23xbA3XrxommICAyEXQ8-13" style="edgeStyle=orthogonalEdgeStyle;rounded=0;orthogonalLoop=1;jettySize=auto;html=1;exitX=0.5;exitY=0;exitDx=0;exitDy=0;entryX=0;entryY=0.5;entryDx=0;entryDy=0;" edge="1" parent="1" source="23xbA3XrxommICAyEXQ8-2" target="23xbA3XrxommICAyEXQ8-1">
          <mxGeometry relative="1" as="geometry" />
        </mxCell>
        <mxCell id="23xbA3XrxommICAyEXQ8-17" value="advice to update" style="edgeLabel;html=1;align=center;verticalAlign=middle;resizable=0;points=[];" vertex="1" connectable="0" parent="23xbA3XrxommICAyEXQ8-13">
          <mxGeometry x="-0.1676" y="1" relative="1" as="geometry">
            <mxPoint as="offset" />
          </mxGeometry>
        </mxCell>
        <mxCell id="23xbA3XrxommICAyEXQ8-2" value="Human" style="ellipse;whiteSpace=wrap;html=1;" vertex="1" parent="1">
          <mxGeometry x="130" y="340" width="120" height="80" as="geometry" />
        </mxCell>
        <mxCell id="23xbA3XrxommICAyEXQ8-8" style="edgeStyle=orthogonalEdgeStyle;rounded=0;orthogonalLoop=1;jettySize=auto;html=1;exitX=0.5;exitY=1;exitDx=0;exitDy=0;entryX=0.5;entryY=0;entryDx=0;entryDy=0;startArrow=none;" edge="1" parent="1" source="23xbA3XrxommICAyEXQ8-15" target="23xbA3XrxommICAyEXQ8-1">
          <mxGeometry relative="1" as="geometry">
            <Array as="points">
              <mxPoint x="365" y="210" />
              <mxPoint x="365" y="210" />
            </Array>
          </mxGeometry>
        </mxCell>
        <mxCell id="23xbA3XrxommICAyEXQ8-3" value="Agent" style="ellipse;whiteSpace=wrap;html=1;" vertex="1" parent="1">
          <mxGeometry x="305" y="120" width="120" height="80" as="geometry" />
        </mxCell>
        <mxCell id="23xbA3XrxommICAyEXQ8-10" style="edgeStyle=orthogonalEdgeStyle;rounded=0;orthogonalLoop=1;jettySize=auto;html=1;exitX=0;exitY=0.5;exitDx=0;exitDy=0;entryX=1;entryY=0.5;entryDx=0;entryDy=0;" edge="1" parent="1" source="23xbA3XrxommICAyEXQ8-6" target="23xbA3XrxommICAyEXQ8-2">
          <mxGeometry relative="1" as="geometry" />
        </mxCell>
        <mxCell id="23xbA3XrxommICAyEXQ8-12" style="edgeStyle=orthogonalEdgeStyle;rounded=0;orthogonalLoop=1;jettySize=auto;html=1;exitX=1;exitY=0.5;exitDx=0;exitDy=0;entryX=0;entryY=0.5;entryDx=0;entryDy=0;" edge="1" parent="1" source="23xbA3XrxommICAyEXQ8-6" target="23xbA3XrxommICAyEXQ8-7">
          <mxGeometry relative="1" as="geometry" />
        </mxCell>
        <mxCell id="23xbA3XrxommICAyEXQ8-6" value="Filter" style="rhombus;whiteSpace=wrap;html=1;" vertex="1" parent="1">
          <mxGeometry x="325" y="340" width="80" height="80" as="geometry" />
        </mxCell>
        <mxCell id="23xbA3XrxommICAyEXQ8-14" style="edgeStyle=orthogonalEdgeStyle;rounded=0;orthogonalLoop=1;jettySize=auto;html=1;exitX=0.5;exitY=0;exitDx=0;exitDy=0;entryX=1;entryY=0.5;entryDx=0;entryDy=0;" edge="1" parent="1" source="23xbA3XrxommICAyEXQ8-7" target="23xbA3XrxommICAyEXQ8-3">
          <mxGeometry relative="1" as="geometry" />
        </mxCell>
        <mxCell id="23xbA3XrxommICAyEXQ8-21" value="rewards" style="edgeLabel;html=1;align=center;verticalAlign=middle;resizable=0;points=[];" vertex="1" connectable="0" parent="23xbA3XrxommICAyEXQ8-14">
          <mxGeometry x="0.3017" relative="1" as="geometry">
            <mxPoint as="offset" />
          </mxGeometry>
        </mxCell>
        <mxCell id="23xbA3XrxommICAyEXQ8-7" value="Environment" style="rounded=0;whiteSpace=wrap;html=1;" vertex="1" parent="1">
          <mxGeometry x="470" y="350" width="120" height="60" as="geometry" />
        </mxCell>
        <mxCell id="23xbA3XrxommICAyEXQ8-15" value="state and action" style="text;html=1;strokeColor=none;fillColor=none;align=center;verticalAlign=middle;whiteSpace=wrap;rounded=0;" vertex="1" parent="1">
          <mxGeometry x="317.5" y="210" width="95" height="20" as="geometry" />
        </mxCell>
        <mxCell id="23xbA3XrxommICAyEXQ8-16" value="" style="edgeStyle=orthogonalEdgeStyle;rounded=0;orthogonalLoop=1;jettySize=auto;html=1;exitX=0.5;exitY=1;exitDx=0;exitDy=0;entryX=0.5;entryY=0;entryDx=0;entryDy=0;endArrow=none;" edge="1" parent="1" source="23xbA3XrxommICAyEXQ8-3" target="23xbA3XrxommICAyEXQ8-15">
          <mxGeometry relative="1" as="geometry">
            <mxPoint x="365" y="200" as="sourcePoint" />
            <mxPoint x="365" y="240" as="targetPoint" />
            <Array as="points" />
          </mxGeometry>
        </mxCell>
        <mxCell id="23xbA3XrxommICAyEXQ8-18" value="explanation" style="text;html=1;strokeColor=none;fillColor=none;align=center;verticalAlign=middle;whiteSpace=wrap;rounded=0;" vertex="1" parent="1">
          <mxGeometry x="350" y="310" width="40" height="20" as="geometry" />
        </mxCell>
        <mxCell id="23xbA3XrxommICAyEXQ8-19" value="incorrect" style="text;html=1;strokeColor=none;fillColor=none;align=center;verticalAlign=middle;whiteSpace=wrap;rounded=0;" vertex="1" parent="1">
          <mxGeometry x="270" y="360" width="40" height="20" as="geometry" />
        </mxCell>
        <mxCell id="23xbA3XrxommICAyEXQ8-20" value="correct" style="text;html=1;strokeColor=none;fillColor=none;align=center;verticalAlign=middle;whiteSpace=wrap;rounded=0;" vertex="1" parent="1">
          <mxGeometry x="413" y="360" width="40" height="20" as="geometry" />
        </mxCell>
      </root>
    </mxGraphModel>
  </diagram>
</mxfile>
